<?xml version="1.0" ?><svg id="Balloon" style="enable-background:new 0 0 32 32;" version="1.1" viewBox="0 0 32 32" xml:space="preserve" xmlns="http://www.w3.org/2000/svg" xmlns:xlink="http://www.w3.org/1999/xlink"><style type="text/css">
	.st0{fill:#F25949;}
	.st1{fill:#A52E21;}
</style><g><path class="st0" d="M16,4c-5.238,0-9.5,4.212-9.5,9.389c0,2.809,3.243,8.134,8.676,14.244c0.422,0.473,1.227,0.474,1.648-0.001   C22.257,21.524,25.5,16.2,25.5,13.389C25.5,8.212,21.238,4,16,4z M16,20.326c-3.86,0-7-3.112-7-6.937c0-3.825,3.14-6.937,7-6.937   c3.859,0,7,3.112,7,6.937C23,17.214,19.859,20.326,16,20.326z"/><path class="st1" d="M16,2C9.659,2,4.5,7.109,4.5,13.389c0,4.566,5.752,11.716,9.182,15.573C14.269,29.621,15.114,30,16,30   s1.731-0.379,2.318-1.038c3.429-3.855,9.182-11.006,9.182-15.573C27.5,7.109,22.341,2,16,2z M16.824,27.632   c-0.422,0.475-1.227,0.474-1.648,0.001C9.743,21.523,6.5,16.198,6.5,13.389C6.5,8.212,10.762,4,16,4s9.5,4.212,9.5,9.389   C25.5,16.2,22.257,21.524,16.824,27.632z"/><path class="st1" d="M16,6.452c-3.86,0-7,3.112-7,6.937c0,3.825,3.14,6.937,7,6.937c3.859,0,7-3.112,7-6.937   C23,9.564,19.859,6.452,16,6.452z M16,18.326c-2.757,0-5-2.215-5-4.937s2.243-4.937,5-4.937s5,2.215,5,4.937   S18.757,18.326,16,18.326z"/></g></svg>